# xmcd
#
# Track frame offsets: 
#        150
#        17822
#        32095
#        47628
#        59605
#        73132
#        85518
#        98785
#        113528
#        135692
#        157349
#        175196
#
# Disc length: 2473 seconds
#
# Revision: 0
# Processed by: cddbd v1.5.2PL0 Copyright (c) Steve Scherf et al.
# Submitted via: ExactAudioCopyFreeDBPlugin 1.0
#
DISCID=9f09a70c
DTITLE=ブレッド＆バター - ライヴ
DYEAR=1976
DGENRE=Folk
TTITLE0=マリエ
TTITLE1=誰が好きなの
TTITLE2=夕暮れ
TTITLE3=野生の馬
TTITLE4=今はひとり
TTITLE5=傷だらけの軽井沢
TTITLE6=うつろな安息日
TTITLE7=セーリング・オン・ボード
TTITLE8=#405
TTITLE9=ハイヤー
TTITLE10=朝の陽
TTITLE11=マハエ
EXTD=
EXTT0=
EXTT1=
EXTT2=
EXTT3=
EXTT4=
EXTT5=
EXTT6=
EXTT7=
EXTT8=
EXTT9=
EXTT10=
EXTT11=
PLAYORDER=
